<?xml version="1.0" encoding="utf-8"?>
<!-- Generator: Adobe Illustrator 27.1.1, SVG Export Plug-In . SVG Version: 6.00 Build 0)  -->
<svg version="1.1" id="Шар_1" xmlns="http://www.w3.org/2000/svg" xmlns:xlink="http://www.w3.org/1999/xlink" x="0px" y="0px"
	 viewBox="0 0 1660.5 599" style="enable-background:new 0 0 1660.5 599;" xml:space="preserve">
<style type="text/css">
	.st0{fill-rule:evenodd;clip-rule:evenodd;fill:#FFFFFF;}
	.st1{enable-background:new    ;}
	.st2{fill:#FFFFFF;}
</style>
<path id="Кольорова_заливка_1" class="st0" d="M460,0c11.2,1.1,17.3,0.5,30,1c9.6,17.2,15.1,28.9,37,34
	c9.6,2.2,22.5-0.6,31,1v2c2.9,4.7-1.1,10.8,0,16c4.6,22.7,1,53.3,1,78v335c0,5.6-1,26-1,26c1.8,2.3,3.7,2.2,6,4l5,7
	c0.8,9.6-1.6,12.8-4,20c13.7,9.1,23.6,25.3,35,37c0.1,5.9-1,8.8-2,13c-13.1,8.5-29,6-50,6l-104-1H149l-95,1c-15.7,0-34.4,0.8-47-2
	c-1.7-2.5-5.1-5.1-6-8c-2.8-8.8,3.8-14.7,7-18c8.9-9.3,19.7-18.3,27-29c-4.7-3.2-5.2-8.8-5-17c1.5-1.7,1.6-4.1,3-6
	c2.5-3.5,7.2-3.7,9-8c-3.8-6.2-1-24.4-1-33V75c0-12.7-1.1-28,1-39h2c6.5-4,35.6,0,45-4c5.7-2.4,14.4-9.2,18-14c3-4,2.7-14.8,7-17
	h308C430.2,1,454.9,3.1,460,0z M51,46v436h2c5.4-8.1,14.6-11.8,23-17c13.7-8.2,28.5-14.3,44-18c35.5-8.8,101.6,8.4,125,20
	c11.2,5.6,23,11.8,33,19c6.2,4.5,11,13.8,20,15c7.6-12,21.8-19.4,34-27c28.6-17.7,61.4-29,108-29c11.6,0,22.2-0.5,32,2
	c19.9,5.2,40.2,10.2,56,20c7.4,4.6,13.9,11.2,21,16V46c-6.2-2.1-17.1-1.1-25-1c-3-2-7.2-1.4-11-3c-11.8-4.9-26.9-16.5-29-31H121
	C110.1,38.2,89.8,46.3,51,46z M298,56l5,1l1,3c2.6,3.8,0.9,15,0,19c-4,1.9-7.1,3.1-9-2c-2.6-3.8-0.9-15,0-19
	C296.1,57.5,297.1,56.8,298,56z M205,79h5c4,6.2,11,11.2,12,20c-0.8,0.9-1.5,1.9-2,3c-3.2,0.3-3.2,1-5,0c-6.1-2.5-8.5-11.6-13-16
	c0.3-2,0.7-4,1-6C204.8,79.4,204,79.8,205,79z M390,79h5c0.8,1.5,1.8,2.8,3,4c-1.6,6.9-9.1,19.3-17,20c-0.9-0.8-1.9-1.5-3-2
	c-0.2-2.3-0.2-4.7,0-7C382.8,90.6,386.1,83.4,390,79z M296,99h8v12c-2.6,0.8-5.3,1.1-8,1c-0.8-2.9-1.1-6-1-9
	C295.8,101.8,295.8,101.3,296,99z M281,100c0.7,4.3,1.3,8.7,2,13c-2.6,0.8-5.3,1.1-8,1c-0.7-4.3-1.3-8.7-2-13h2
	C276.4,100,278.3,100,281,100z M324,114c-2.7,0-5.4-0.4-8-1v-3c1.5-2.4,1.3-6.9,3-9c1.1-0.8,0.9-0.6,3-1c1.3,0.8,2.6,1.5,4,2
	C325.3,106,324.7,110,324,114z M347,106c3.5,0.4,4.9,1.3,8,2c1.5,2.5,2.3,2.3,3,6c-2.5,3.4-2,8-6,10c-5-3.5-8.9-0.9-9-10L347,106z
	 M247,107h7c1.1,4.9,3.2,7.6,4,13l-12,4v-1h-1c-0.6-4.6-2.3-7.1-3-12C243.8,109.9,245.5,108.5,247,107z M288,132
	c15.9-0.2,29.9,0,42,4c46.9,15.3,94.6,75.2,68,140c-4.4,10.6-10.1,20.7-17,30c-9.1,12.2-25.1,18.4-31,34c-0.7,5-1.3,10-2,15
	c-0.9,2.7-5.8,4.7-6,7c-0.3,2.8-0.6,18,1,22c3.6,9.1,12.1,16.4,6,31c-2.4,5.8-8.6,12-14,15c-2.2,1.2-4.9,0.5-7,2c-1.9,1.3-1.6,5-3,7
	c-3,4.4-9,6.6-15,8c-12.8,2.9-30.5-0.7-35-7l-3-8l-7-2c-5-3-11.6-9.5-14-15c-6.2-14.4,2.5-22.1,6-31c3.6-9.1-4.7-38.5-7-44
	c-3.6-8.6-10.5-14.2-17-20c-11.2-9.9-22.7-23.5-29-38c-26-60.2,6.8-114.2,46-138c7.5-4.6,18-7.5,27-10
	C281,132.9,285.1,133.9,288,132z M200,140h3c2.2,3.5,5.5,5.8,7,10h-1c-1.7,2.6-2.2,3.3-6,4C197.6,146.2,194.7,148.2,200,140z
	 M396,140h3c1.8,2.6,3,2.3,4,6c-3.9,2.9-4.1,6.8-10,8c-1.6-2.4-2.9-2.9-4-6C391.7,146.1,394.2,142.7,396,140z M139,142h6
	c5.4,6.4,15.7,5.2,16,17c-2.4,1.3-2.8,1.8-7,2C148.1,155.5,133,153.3,139,142z M286,142l-22,6c-9.4,4-27.2,15.4-33,23
	c-7.4,9.8-15,19.8-20,32c-3,7.4-4.2,16-6,24c-2.4,11.1,0.8,25.3,3,33c4.5,15.7,8.6,26.7,17,38c3.8,5.1,9.9,9.2,15,13
	c12,9.1,19.2,23.7,23,41c5.7,1.9,15.6,1,23,1h49c1-0.8,0.3-0.4,2-1c7.5-38.3,38.4-46.7,52-80c24.9-60.9-22-114.8-66-128
	C312.7,140.9,298.9,142,286,142z M455,142l6,1v2c1.4,2.2,0.5,3.3,0,6c-7.1,3.5-11.1,9.6-21,10c-1.4-2.5-1.9-3.5-2-8L455,142z
	 M415,162c3.1,1.9,4.4,3.5,5,8c-3.8,1.9-5.8,4.6-10,6c-1.7-2.9-3.2-3.9-4-8C409.5,166.8,412.6,164.8,415,162z M182,163h3
	c1.9,2.5,5.3,4.4,8,6c-1.6,3.6-2.1,5.4-7,6C181.4,169.7,177.4,170.4,182,163z M299,347h-6c-3.8-11.4-1.1-31.5-1-45
	c-2.3-3.6-1.4-9.9-3-14c-2.6-6.9-8.1-13.3-11-20c-1.6-3.8-1-7.4-3-11c-3.4-6-10.9-9.5-14-17c-4.9-11.9,0.7-41.4,6-50
	c2.6-4.3,9.6-10.6,14-13l5-1c3.7-2.9,1.8-7.9,7-10c5.7-5,15.4-0.5,18,4c0.3,1.7,0.7,3.3,1,5c3.2,3.9,13.3,6,17,11
	c7.3,9.8,6.9,22.5,10,37c2.4,11.1-2.9,22.1-8,29l-5,4c-2,3.6-1.4,7.2-3,11c-3.1,7.1-9,13.8-12,21c-5.9,14.1-2.7,39.2-3,58
	c-1.9,0.7-4,1-6,1c-3.5-10.4-1.1-28.6-1-41h-2V347z M139,173c6.3,0,12.9,2.7,14,8c-1.3,1.5-2.3,3.2-3,5c-1.8-0.6-1-0.2-2-1
	c-4.7-1-10-3-11-8C138.3,175.6,138.4,175.2,139,173z M456,173c2.1,0.4,1.9,0.2,3,1c1.9,1.9,2.5,3.5,3,7c-4.2,1.2-9.5,5.7-13,4
	c-1.8-1.9-1.9-3.1-2-7C449.9,176.7,453.8,175.1,456,173z M312,180c-1.1,3.7-3.9,5.5-3,8c1.9,7.4,7.4,12.3,11,18
	c6.6,10.4,8.8,20.7,9,38h1v-2C344.7,227.1,327,184.6,312,180z M284,181c-3.3,4.1-9.2,6.5-12,11c-4.3,6.9-9.7,31.9-7,42
	c1.1,4,3.7,7.1,5,11h2v-1c-2.5-3.9-1.4-16.6,0-21c4.1-13.2,17.2-22.6,19-37c-2.1-1.5-2.8-2.6-4-5H284z M168,188
	c4.1,0.4,8.5,1.8,11,4c0.8,1.2,0.8,1.7,1,4c-2.5,2.5-1.1,3.4-6,4c-2-1.6-5.2-2.4-8-3v-4C167,191.5,167.7,189.8,168,188z M429,188
	c2.9,1.1,1.8,0.2,3,3c1.3,1.7,1.6,3.1,2,6c-3.6,0.9-9.1,4.1-11,3c-2.1-2.1-2.7-3.9-3-8C423.1,191.3,426.9,189.8,429,188z M298,201
	c-6.7,9.9-22.8,20.5-18,41l4,14c10.2,4,24,3.3,33-1c3.4-22.6,3.8-33.1-10-47C304,205,303.3,202,298,201z M122,211l20,2
	c0.8,1.5,1.8,2.8,3,4c-0.2,1.8-0.9,3.5-2,5c-2,1.3-6.5,1.1-10,1c-2.7-1.7-9.3-1.9-12-3C119.6,216.1,120.4,214,122,211z M469,211h8
	c0.8,1.5,1.8,2.8,3,4c-0.6,1.8-0.2,1-1,2c-1.2,3.6-1.5,3.7-6,4c-3.8,2.6-12.1,2.7-16,2v-2c-1-1.4-1-3.3-1-6l3-1
	C461.4,212.4,466.5,212.7,469,211z M159,215c5.1-0.2,10.2-0.1,13,2c0.9,1.3,0.9,2.5,1,5c-0.8,1.1-0.6,0.9-1,3
	c-4.6-0.1-10.3-0.7-14-2C158.8,220.4,159.1,217.7,159,215z M441,215v9l-13,1c-0.3-2.7-0.7-5.3-1-8c1.9-0.7,4-1,6-1
	C434.7,214.9,437.9,214.9,441,215z M282,346h-9c0.1-12.7,3-40.2-1-50c-3.3-8.2-15-12.1-20-19c-7.2-9.9-10.8-25.7-11-42
	c2.5-1.4,3.5-1.9,8-2c0.2,0.4,0.6,0.8,1,1c1.5,14,4.3,29.8,11,39c5.7,7.7,16.3,11,20,21C285.2,305.2,281.9,332,282,346z M326,346h-9
	c-3.9-11.7-1.1-32.2-1-46c2.5-3.9,2.4-9.4,5-13c5.6-7.8,16.3-11.1,21-20c4.8-9.1,2.8-25,9-33c1.4-1,3.3-1,6-1l1,3
	c2.5,4.2-0.9,12-2,16c-2.9,9.9-3.8,17.8-9,25c-5.3,7.3-18,10.9-21,20V346z M143,242v8c-3.1,1.1-8.4,1.1-13,1v-8L143,242z M470,251
	c-4.7,0.1-9.4-0.2-14-1v-7c2.3-0.7,4.6-1.1,7-1c1.5,1,6.3,1.4,8,2C470.4,246.3,470.1,248.6,470,251z M172,249v7
	c-2.6,0.8-5.3,1.1-8,1c-1.1,0.8-0.9,0.6-3,1c-0.2-0.4-0.6-0.8-1-1c-0.3-2.3-0.7-4.7-1-7L172,249z M428,249c4.4-0.1,8.7,0.2,13,1v2
	c-1,1.4-1,3.3-1,6l-12-1c-0.6-1.8-0.2-1-1-2C427.7,253.1,428,251,428,249z M287,263c4.4,9.7,8.6,19.5,13,30h1
	c1.2-11.8,7.8-20.4,12-30h-4C304.3,266.1,292.2,263.5,287,263z M175,272c2,2.2,2.8,6.1,4,9h-2c-2.1,2.1-7.8,4.1-10,3
	c-1.9-2-2.6-4.4-3-8h2C168.4,274.2,172.6,273.9,175,272z M423,273c5.8,0.1,8.3,1.8,13,3v3c-1,1.5-1.7,3.2-2,5h-6
	c-2.1-1.5-4.5-2.5-7-3v-3C422,276.5,422.7,274.8,423,273z M146,285h4c0.2,0.4,0.6,0.8,1,1c0.3,2.7,0.7,5.3,1,8c-4.4,2.1-7,4.4-13,5
	l-1-3c-1.3-1.7-1.6-3.1-2-6C138.9,288.7,143.7,287.2,146,285z M450,285c5.4,0.9,12.9,2.6,14,8c-1.2,1.3-1.8,3.6-3,5
	c-1.1,0.8-0.9,0.6-3,1c-3.8-3.3-9.1-2.5-10-9C449,288.5,449.7,286.8,450,285z M184,296c2.1,0.4,1.9,0.2,3,1c1.9,1.7,3.8,4.5,3,6
	c-2.5,2.8-5.5,5.2-10,6c-1.3-2.8-2.4-4.2-3-8C179.7,299.7,182.3,298.3,184,296z M414,296c4,0.9,8.4,3.5,10,7h-1
	c-0.8,2.7-1.8,3.7-3,6c-1.8-0.6-1-0.2-2-1C409.2,305.8,410.2,301.5,414,296z M160,311h3c0.8,3,2.9,5.5,2,7c-3.4,3.2-7.5,5.6-12,7
	c-1.1-3.4-2.3-3.8-3-8C153.8,315.8,157.2,313.8,160,311z M438,311l12,6c-0.6,1.8-0.2,1-1,2c-0.9,3.7-0.9,4.2-5,5
	c-3.6-3.2-8.1-2.8-9-9C436.6,313.7,437,312.9,438,311z M202,316c3.5,1.2,4.3,3.2,7,5c-2,4.2-4.7,8.1-10,9
	C192.8,320.9,196.7,323.6,202,316z M396,316c4.6,1.5,8,5.3,9,10c-2.9,2.1-2.2,3.3-7,4C394,324.5,391.7,322.7,396,316z M224,334
	c3.5,0.8,5.6,2,7,5c-3.9,3.3-3.5,8.1-10,9c-1-0.8-0.3-0.4-2-1c-0.6-1.6-0.9-3.3-1-5C220.3,340.2,222.4,336.5,224,334z M373,334h3
	c2.6,4,6,6.4,7,12c-1.9,0.5-3.7,1.5-5,3h-2c-1.6-5-5.3-7.2-7-12C371.7,336.1,371.6,336,373,334z M181,338c4.1,1.1,4.5,2.6,7,5
	c-0.6,1.8-0.2,1-1,2c-2.1,6.2-8.8,9.7-13,14c-4.1-0.2-4.6-0.1-6-3c-0.8-1.2-0.8-1.7-1-4C171.7,347.6,176.6,342.7,181,338z M415,339
	h6c3.8,5.7,10.7,7.9,12,16c-2.6,2.5-1.9,3.5-7,4C420.7,353.8,410.1,348.4,415,339z M267,383h66c-0.5-7.6,0.2-17.4-1-24h-64v2
	C266.1,364.1,267,377.4,267,383z M266,389c-1.6,2.4-2.9,2.9-4,6c-8.2,10.3,2.6,22.8,9,26c7.2,3.6,45.9,5.8,56,2
	c6.3-2.4,8.8-7.5,13-12c0.5-5.2,1.9-10.1-1-14c-1-3.6-2.5-5.8-6-7c-3.7-2.3-13.5-1-19-1H266z M283,430v4c1.5,0.8,2.8,1.8,4,3
	c6.6,0.2,20.5,1.9,25-1c3.3-1,3.9-1.8,5-5C306.7,431.1,291.5,432.9,283,430z M278,557l-201,2H33c-4.9,0-13.8-1.2-17,1
	c-2.1,1.5-1.7,3.5-2,7c2.3,1.2,2.3,1.6,6,2c5.5,3.4,34,1,43,1l111-1c136.5,0,274.6,0.1,410,0c1.4-2.5,1.9-3.5,2-8l-3-1
	c-4.8-3.2-15.3-2-23-2h-53l-199-1c3.9-23.8,33.1-22.6,56-28c18.8-4.5,42-2.7,62-7c6.5-1.4,15.7,0.1,21-1c16.6-3.6,34.6,1.3,50-2h17
	l40-2c1-1.8,1.3-1.7,2-4c6.2-10.2-7-10-10-14c-0.3-1.7-0.7-3.3-1-5c-9-13.3-27.7-18.8-45-24c-44.8-13.4-113.3-7.1-150,9
	c-12.9,5.6-26,13.9-37,22c-6.1,4.5-9.5,11.9-19,13c-12.9-13.5-30.9-27.1-49-35c-42.7-18.6-117.3-22.6-161-4
	c-10.9,4.7-22.8,8.9-29,18l-2,6c-2.8,3.7-7.9,2-10,7c-1.3,1.7-1.6,3.1-2,6c2.1,2.2,1.7,3.7,5,5c4.9,3.6,17.8,2,26,2l58,1
	c41.1,0,112.7,3.1,137,19c5,3.2,7,8.8,11,13V557z M72,501v-4c6.6-2.3,12.4-8.2,19-11c8.4-3.5,18.4-5.7,27-8
	c35.7-9.3,111.7,3.2,134,17c12.9,7.9,22,19.4,33,29v2h-1c-10.7-11.6-30.7-12.8-48-18C197.9,496.5,121.5,503.2,72,501z M296,526
	c14-0.5,17.8-10.9,26-17c9.9-7.5,20.7-13.9,32-19c25.2-11,54.3-14,91-14c12.6,0,24.2-0.7,35,2c17.6,4.5,34.5,11.5,50,21v1h-2
	c-5.5,3.4-33.1,1-42,1h-56c-9,0-20.6-0.8-28,1l-27,1c-21.6,5.1-41.6,10-60,18c-3.5,1.5-16.7,12.7-17,12
	C296.5,531.1,296.2,529.4,296,526z M388,486c-4,2.4-10.1,1.5-15,3c-8.2,2.5-16.5,5.9-23,10v2h5c7.4-5.4,37.4-6.8,41-13
	C393.7,486.4,392.6,486,388,486z M196,488c0.4,2.1,0.2,1.9,1,3c4.9,3.6,12.5,2.9,19,5c10.4,3.4,24.1,9.8,34,10v-4
	C235.1,495.2,216.7,488.5,196,488z M110,537c-0.8,0.7-2.2,1.3-3,2c-0.9,0.7-1.1,1.3-2,2c0.6,1.8,0.2,1,1,2c4.6,4.8,25.4,2,34,2h100
	c0.6-1.6,0.9-3.3,1-5l-3-1c-5.4-3.3-29.5-0.7-38-1C171.9,537,139.8,536.9,110,537z M364,538c-1.6,2.5-3,2.5-2,5c3.2,4.7,24.6,2,32,2
	h99c0.6-1.6,0.9-3.3,1-5c-8.4-4.3-27.1-2-39-2H364z"/>
<g>
	<g class="st1">
		<path class="st2" d="M814,598.5c-2.3-16-3.8-31.5-4.2-46.5s-0.8-26.2-0.8-33.5H638.5v-345c0-1.7,0.2-2.8,0.5-3.5
			c0.3-0.7,1.4-1.1,3.2-1.2c1.8-0.2,4.6-0.2,8.2-0.2v338H784v-333c0-1.7,0.2-2.8,0.5-3.5c0.3-0.7,1.4-1.1,3.2-1.2
			c1.8-0.2,4.6-0.2,8.2-0.2v338h26v89c0,1.3-1,2.2-3,2.5C817,598.4,815.3,598.5,814,598.5z"/>
		<path class="st2" d="M868.5,518.5v-345c0-1.7,0.2-2.8,0.5-3.5c0.3-0.7,1.4-1.1,3.2-1.2c1.8-0.2,4.6-0.2,8.2-0.2H1024v345
			c0,1.7-0.2,2.8-0.5,3.5c-0.3,0.7-1.3,1.1-3,1.2c-1.7,0.2-4.5,0.2-8.5,0.2v-338H880.5v333c0,1.7-0.2,2.8-0.5,3.5
			c-0.3,0.7-1.3,1.1-3,1.2C875.3,518.5,872.5,518.5,868.5,518.5z"/>
		<path class="st2" d="M1092,518.5v-345c0-1.7,0.5-2.9,1.5-3.8c1-0.8,2.2-1.2,3.5-1.2h2c2.7,0,4.3,1.7,5,5v340
			c0,1.7-0.2,2.8-0.5,3.5c-0.3,0.7-1.3,1.1-3,1.2C1098.8,518.5,1096,518.5,1092,518.5z M1101,363.5c-4.3,0-5.9-0.6-4.8-1.8
			c1.2-1.2,1.8-2.4,1.8-3.8V176.5c0-2.3,0-4.2,0-5.8s0.2-2.2,0.5-2.2h53c21,0,37.5,4.4,49.5,13.2c12,8.8,20.4,20.2,25.2,34
			c4.8,13.8,7.2,28.4,7.2,43.8c0,17-1.8,31.9-5.5,44.8c-3.7,12.8-9.2,23.7-16.5,32.5c-7.3,8.8-16.3,15.5-27,20
			c-10.7,4.5-23,6.8-37,6.8H1101z M1101,351.5h46c17.3,0,31.4-3.8,42.2-11.5c10.8-7.7,18.9-18.4,24.2-32.2c5.3-13.8,8-29.9,8-48.2
			c0-14-2.1-27-6.2-39c-4.2-12-11.5-21.7-22-29c-10.5-7.3-25.2-11-44.2-11h-48V351.5z"/>
		<path class="st2" d="M1282.5,518.5v-345c0-1.7,0.2-2.8,0.5-3.5c0.3-0.7,1.4-1.1,3.2-1.2c1.8-0.2,4.6-0.2,8.2-0.2H1438v345
			c0,1.7-0.2,2.8-0.5,3.5c-0.3,0.7-1.3,1.1-3,1.2c-1.7,0.2-4.5,0.2-8.5,0.2v-338h-131.5v333c0,1.7-0.2,2.8-0.5,3.5
			c-0.3,0.7-1.3,1.1-3,1.2C1289.3,518.5,1286.5,518.5,1282.5,518.5z"/>
		<path class="st2" d="M1506,518.5v-345c0-1.7,0.2-2.8,0.5-3.5c0.3-0.7,1.4-1.1,3.2-1.2c1.8-0.2,4.6-0.2,8.2-0.2h143.5v345
			c0,1.7-0.2,2.8-0.5,3.5c-0.3,0.7-1.3,1.1-3,1.2c-1.7,0.2-4.5,0.2-8.5,0.2v-338H1518v333c0,1.7-0.2,2.8-0.5,3.5
			c-0.3,0.7-1.3,1.1-3,1.2C1512.8,518.5,1510,518.5,1506,518.5z"/>
	</g>
</g>
</svg>
